# xmcd
#
# Track frame offsets:
#	150
#	10169
#	22509
#	32645
#	42632
#	53728
#	65853
#	75844
#	85675
#	97138
#	109263
#	121010
#	133928
#	144488
#	154250
#	165123
#	178751
#	192541
#	205220
#	217255
#	226847
#	237407
#	248823
#	261743
#
# Disc length: 3610 seconds
#
# Revision: 0
# Processed by: cddbd v1.5.2PL0 Copyright (c) Steve Scherf et al.
# Submitted via: EasyCDDAExtractor 16.0.1.1
#
DISCID=500e1818
DTITLE=Dave Dudley - Truck Drivin Son of a Gun_The Mercury Hit Singles 1963 - 
DTITLE=1973
DYEAR=1900
DGENRE=TruckCountry
TTITLE0=Last Day in the Mines
TTITLE1=Mad
TTITLE2=Two Six Packs Away
TTITLE3=Truck Drivin' Son-Of-A-Gun
TTITLE4=What We're Fighting For
TTITLE5=Viet Nam Blues
TTITLE6=Lonelyville
TTITLE7=Long Time Gone
TTITLE8=My Kind of Love
TTITLE9=Trucker's Prayer
TTITLE10=Anything Leaving Town Today
TTITLE11=There Ain't No Easy Run
TTITLE12=I Keep Coming Back for More
TTITLE13=Please Let Me Prove (My Love for You)
TTITLE14=One More Mile
TTITLE15=George (And the North Woods)
TTITLE16=The Pool Shark
TTITLE17=This Night Ain't Fit for Nothing But Drinking
TTITLE18=Listen Betty (I'm Singing Your Song)
TTITLE19=Comin' Down
TTITLE20=Fly Away Again
TTITLE21=If It Feels Good Do It
TTITLE22=You've Got to Cry Girl
TTITLE23=Keep on Truckin'
EXTD=
EXTT0=
EXTT1=
EXTT2=
EXTT3=
EXTT4=
EXTT5=
EXTT6=
EXTT7=
EXTT8=
EXTT9=
EXTT10=
EXTT11=
EXTT12=
EXTT13=
EXTT14=
EXTT15=
EXTT16=
EXTT17=
EXTT18=
EXTT19=
EXTT20=
EXTT21=
EXTT22=
EXTT23=
PLAYORDER=
